<svg width="43" height="42" viewBox="0 0 43 42" fill="none" xmlns="http://www.w3.org/2000/svg">
<path d="M14.3885 29.0072C14.4624 28.8989 14.4347 28.7817 14.3053 28.6554C14.139 28.5291 14.0096 28.5111 13.9172 28.6013C13.8433 28.7095 13.871 28.8268 14.0004 28.953C14.1667 29.0793 14.2961 29.0974 14.3885 29.0072ZM13.6122 27.8977C13.5198 27.7715 13.4089 27.7354 13.2796 27.7895C13.1687 27.8617 13.1687 27.9699 13.2796 28.1142C13.4089 28.2585 13.5198 28.3036 13.6122 28.2495C13.7231 28.1774 13.7231 28.0601 13.6122 27.8977ZM12.4756 26.8154C12.5125 26.7432 12.4663 26.6711 12.337 26.5989C12.2076 26.5628 12.1337 26.5809 12.1152 26.653C12.0597 26.7432 12.0967 26.8154 12.2261 26.8695C12.3739 26.9056 12.4571 26.8875 12.4756 26.8154ZM13.0578 27.4377C13.0947 27.4197 13.1086 27.3791 13.0994 27.316C13.0901 27.2528 13.0578 27.2032 13.0023 27.1672C12.8914 27.0409 12.799 27.0138 12.7251 27.086C12.6512 27.1581 12.6604 27.2574 12.7528 27.3836C12.8637 27.4919 12.9654 27.5099 13.0578 27.4377ZM15.442 29.4672C15.479 29.3409 15.3958 29.2417 15.1925 29.1695C15.0261 29.1154 14.906 29.1515 14.8321 29.2778C14.7951 29.404 14.8783 29.5032 15.0816 29.5754C15.2479 29.6295 15.3681 29.5934 15.442 29.4672ZM16.6064 29.5483C16.6064 29.404 16.4955 29.3319 16.2737 29.3319C16.0889 29.3319 15.9965 29.404 15.9965 29.5483C15.9965 29.6927 16.0981 29.7648 16.3014 29.7648C16.5047 29.7648 16.6064 29.6927 16.6064 29.5483ZM17.6876 29.3589C17.6506 29.2327 17.5305 29.1876 17.3272 29.2236C17.1239 29.2597 17.0407 29.3409 17.0777 29.4672C17.1147 29.6115 17.2255 29.6656 17.4104 29.6295C17.5952 29.5934 17.6876 29.5032 17.6876 29.3589ZM35.4861 20.7813C35.4861 16.9569 34.0999 13.6918 31.3276 10.9859C28.5552 8.28003 25.2099 6.92708 21.2917 6.92708C17.3734 6.92708 14.0281 8.28003 11.2558 10.9859C8.4834 13.6918 7.09722 16.9569 7.09722 20.7813C7.09722 23.7938 8.00286 26.5042 9.81413 28.9125C11.6254 31.3207 13.9542 32.9938 16.8005 33.9319C17.1331 33.986 17.378 33.9409 17.5351 33.7966C17.6922 33.6523 17.7708 33.4719 17.7708 33.2554C17.7708 32.3174 17.7615 31.4605 17.7431 30.6848C17.6322 30.7029 17.4889 30.7254 17.3133 30.7525C17.1378 30.7795 16.8097 30.7976 16.3292 30.8066C15.8486 30.8156 15.405 30.7795 14.9984 30.6983C14.5918 30.6172 14.1898 30.4368 13.7925 30.1572C13.3951 29.8776 13.1225 29.5032 12.9746 29.0342C12.5495 27.9699 12.0228 27.3025 11.3944 27.0319C11.3574 27.0138 11.3158 26.9823 11.2696 26.9372L11.0478 26.7207L10.8538 26.4636L10.9647 26.2607L11.5053 26.166C11.6162 26.166 11.7548 26.184 11.9211 26.2201C12.0875 26.2562 12.3647 26.396 12.7528 26.6395C13.1409 26.883 13.4459 27.2032 13.6677 27.6001C13.9634 28.1052 14.31 28.484 14.7073 28.7366C15.1047 28.9891 15.5067 29.1154 15.9133 29.1154C16.3199 29.1154 16.6711 29.0838 16.9668 29.0207C17.2625 28.9576 17.5397 28.8719 17.7985 28.7636C17.9279 27.9158 18.2328 27.2934 18.7134 26.8966C17.8077 26.7883 17.013 26.6215 16.3292 26.396C15.6453 26.1705 14.9707 25.8187 14.3053 25.3407C13.64 24.8626 13.1271 24.1771 12.7667 23.2842C12.4063 22.3913 12.2261 21.3134 12.2261 20.0507C12.2261 18.6256 12.7159 17.3899 13.6954 16.3436C13.2518 15.2252 13.298 13.9985 13.834 12.6636C14.1852 12.5553 14.6888 12.623 15.345 12.8665C16.0011 13.11 16.5602 13.3761 17.0222 13.6648L17.7431 14.0977C18.815 13.791 19.9979 13.6377 21.2917 13.6377C22.5854 13.6377 23.7683 13.791 24.8403 14.0977C25.0436 13.9714 25.307 13.8091 25.6304 13.6106C25.9538 13.4122 26.4667 13.1777 27.1691 12.9071C27.8714 12.6365 28.3981 12.5553 28.7493 12.6636C29.2853 13.9985 29.3315 15.2252 28.8879 16.3436C29.8675 17.3899 30.3573 18.6256 30.3573 20.0507C30.3573 21.0789 30.2279 21.9854 29.9691 22.7701C29.7104 23.5548 29.3823 24.1862 28.9849 24.6642C28.5876 25.1422 28.0932 25.5436 27.5017 25.8683C26.9103 26.193 26.3327 26.4275 25.769 26.5719C25.2053 26.7162 24.5723 26.8244 23.87 26.8966C24.5168 27.4558 24.8403 28.3126 24.8403 29.4672C24.8403 30.1887 24.8357 30.9915 24.8264 31.8754C24.8172 32.7593 24.8126 33.2193 24.8126 33.2554C24.8126 33.4719 24.8911 33.6523 25.0482 33.7966C25.2053 33.9409 25.4502 33.986 25.7829 33.9319C28.6292 32.9938 30.9579 31.3207 32.7692 28.9125C34.5805 26.5042 35.4861 23.7938 35.4861 20.7813ZM42.5833 7.79297V33.7695C42.5833 35.9162 41.8025 37.7517 40.2407 39.276C38.6789 40.8003 36.7984 41.5625 34.599 41.5625H7.98437C5.78498 41.5625 3.9044 40.8003 2.34264 39.276C0.780879 37.7517 0 35.9162 0 33.7695V7.79297C0 5.64629 0.780879 3.8108 2.34264 2.28648C3.9044 0.76216 5.78498 0 7.98437 0H34.599C36.7984 0 38.6789 0.76216 40.2407 2.28648C41.8025 3.8108 42.5833 5.64629 42.5833 7.79297Z" fill="#0FA958"/>
</svg>
