<svg width="39" height="37" viewBox="0 0 39 37" fill="none" xmlns="http://www.w3.org/2000/svg">
<path d="M37.44 0H1.56C0.697125 0 0 0.661375 0 1.48V35.52C0 36.3386 0.697125 37 1.56 37H37.44C38.3029 37 39 36.3386 39 35.52V1.48C39 0.661375 38.3029 0 37.44 0ZM11.5684 31.5286H5.78175V13.8704H11.5684V31.5286ZM8.6775 11.4561C8.01414 11.4561 7.36568 11.2695 6.81412 10.9199C6.26255 10.5702 5.83266 10.0733 5.57881 9.49182C5.32495 8.91039 5.25853 8.2706 5.38795 7.65335C5.51736 7.0361 5.8368 6.46912 6.30586 6.02411C6.77493 5.5791 7.37255 5.27604 8.02317 5.15327C8.67378 5.03049 9.34816 5.0935 9.96102 5.33434C10.5739 5.57518 11.0977 5.98302 11.4662 6.5063C11.8348 7.02958 12.0315 7.64478 12.0315 8.27412C12.0266 10.0316 10.5251 11.4561 8.6775 11.4561ZM33.2329 31.5286H27.4511V22.94C27.4511 20.8911 27.4121 18.2595 24.4433 18.2595C21.4354 18.2595 20.9722 20.4887 20.9722 22.792V31.5286H15.1954V13.8704H20.7431V16.2846H20.8211C21.5914 14.8971 23.478 13.431 26.2958 13.431C32.1555 13.431 33.2329 17.0894 33.2329 21.8439V31.5286V31.5286Z" fill="#0FA958"/>
</svg>
