<svg width="78" height="25" viewBox="0 0 78 25" fill="none" xmlns="http://www.w3.org/2000/svg">
<path d="M27.9294 24.6316L23.3343 16.2911H22.0439V24.6316H16.6619V2.53705H25.6948C27.4363 2.53705 28.9156 2.84129 30.1326 3.44979C31.3705 4.05826 32.2938 4.89758 32.9023 5.96768C33.5108 7.01678 33.815 8.19181 33.815 9.49274C33.815 10.9615 33.3954 12.2729 32.5561 13.4269C31.7378 14.581 30.5208 15.3993 28.9051 15.8819L34.0039 24.6316H27.9294ZM22.0439 12.4827H25.3801C26.3662 12.4827 27.1006 12.2415 27.5832 11.7588C28.0868 11.2762 28.3386 10.5943 28.3386 9.71305C28.3386 8.87377 28.0868 8.21282 27.5832 7.73021C27.1006 7.2476 26.3662 7.00632 25.3801 7.00632H22.0439V12.4827Z" fill="white"/>
<path d="M41.6315 7.06927V24.6316H36.2495V7.06927H41.6315Z" fill="white"/>
<path d="M51.7318 24.8834C50.2002 24.8834 48.8362 24.6211 47.6402 24.0965C46.4442 23.572 45.5 22.8585 44.8076 21.9563C44.1152 21.0331 43.7272 20.0049 43.6431 18.8719H48.9621C49.0251 19.4804 49.3083 19.9735 49.8119 20.3512C50.3155 20.7288 50.9347 20.9177 51.6689 20.9177C52.3404 20.9177 52.8546 20.7918 53.2111 20.54C53.5887 20.2672 53.7776 19.921 53.7776 19.5014C53.7776 18.9978 53.5155 18.6306 52.9907 18.3998C52.4663 18.148 51.6165 17.8752 50.4414 17.5815C49.1824 17.2877 48.1335 16.9835 47.294 16.6687C46.4548 16.333 45.7309 15.8189 45.1223 15.1265C44.5141 14.4131 44.2096 13.4584 44.2096 12.2624C44.2096 11.2553 44.4826 10.3425 45.0279 9.52421C45.5944 8.68492 46.4128 8.02398 47.4829 7.54137C48.5742 7.05876 49.8646 6.81747 51.3541 6.81747C53.5573 6.81747 55.2883 7.36303 56.5473 8.45411C57.8274 9.54518 58.5616 10.993 58.7504 12.7975H53.7776C53.6938 12.189 53.4211 11.7064 52.9593 11.3497C52.5186 10.993 51.9312 10.8146 51.1967 10.8146C50.5673 10.8146 50.0849 10.9405 49.749 11.1923C49.4134 11.4231 49.2454 11.7483 49.2454 12.168C49.2454 12.6716 49.5078 13.0493 50.0322 13.3011C50.5779 13.5528 51.4171 13.8046 52.5501 14.0564C53.8511 14.3921 54.9106 14.7278 55.729 15.0636C56.5473 15.3783 57.2609 15.9029 57.8692 16.6373C58.4986 17.3507 58.824 18.3159 58.8449 19.5328C58.8449 20.561 58.5513 21.4842 57.9636 22.3025C57.3971 23.0999 56.5685 23.7293 55.4772 24.1909C54.4071 24.6525 53.1587 24.8834 51.7318 24.8834Z" fill="white"/>
<path d="M77.7486 15.5672C77.7486 16.0707 77.7171 16.5953 77.6541 17.1408H65.4738C65.558 18.2319 65.9042 19.0712 66.5125 19.6587C67.1419 20.2253 67.9079 20.5085 68.81 20.5085C70.1531 20.5085 71.0867 19.942 71.6112 18.8089H77.3394C77.0459 19.963 76.5108 21.0016 75.7342 21.9248C74.9789 22.8481 74.0244 23.572 72.8701 24.0965C71.7162 24.6211 70.4258 24.8834 68.9989 24.8834C67.2784 24.8834 65.7468 24.5162 64.4037 23.7818C63.061 23.0474 62.0117 21.9983 61.2563 20.6344C60.501 19.2705 60.1233 17.6759 60.1233 15.8504C60.1233 14.0249 60.4907 12.4303 61.2249 11.0664C61.9802 9.70255 63.0295 8.65345 64.3722 7.91905C65.7153 7.18466 67.2576 6.81747 68.9989 6.81747C70.6985 6.81747 72.2092 7.17419 73.5311 7.88758C74.853 8.60097 75.8814 9.61863 76.6155 10.9405C77.3709 12.2624 77.7486 13.8046 77.7486 15.5672ZM72.2407 14.1508C72.2407 13.2276 71.9259 12.4932 71.2965 11.9477C70.667 11.4021 69.8801 11.1294 68.9359 11.1294C68.0338 11.1294 67.2678 11.3917 66.6383 11.9162C66.0301 12.4408 65.6524 13.1857 65.5053 14.1508H72.2407Z" fill="white"/>
<path d="M0 7.52633L0 19.5C0 22.3341 2.29749 24.6316 5.13158 24.6316H9.23684C12.0709 24.6316 14.3684 22.3341 14.3684 19.5L14.3684 7.52633C14.3684 4.69224 12.0709 2.39475 9.23684 2.39475H5.13158C2.29749 2.39475 0 4.69224 0 7.52633Z" fill="#3CD259"/>
<g filter="url(#filter0_i_100_94)">
<path d="M2.39478 19.1106H8.12206C8.59095 19.1106 8.96416 19.0116 9.24167 18.8135C9.50961 18.606 9.64358 18.276 9.64358 17.8233C9.64358 17.3706 9.50961 17.0358 9.24167 16.8189C8.96416 16.602 8.59095 16.4936 8.12206 16.4936H2.39478V13.3673H8.12206C9.08854 13.3673 9.9163 13.5654 10.6053 13.9614C11.2847 14.3575 11.7967 14.8998 12.1412 15.5882C12.4857 16.2767 12.6579 17.0453 12.6579 17.894C12.6579 18.7428 12.4857 19.4972 12.1412 20.1574C11.7967 20.8081 11.2847 21.3174 10.6053 21.6852C9.92588 22.053 9.09812 22.2368 8.12206 22.2368H2.39478V19.1106Z" fill="black"/>
</g>
<path d="M5.88281 4.10526C6.52395 4.10526 7.10769 4.25144 7.63401 4.54377C8.15076 4.83613 8.56225 5.26995 8.86847 5.8452C9.17469 6.41104 9.32778 7.0995 9.32778 7.91053V9.15538H12.5575V12.2958H2.39478V7.91053C2.39478 6.68452 2.71056 5.7462 3.34214 5.09548C3.97373 4.43532 4.82061 4.10526 5.88281 4.10526ZM6.81584 8.26416C6.81584 7.61344 6.50483 7.2881 5.88281 7.2881C5.2608 7.2881 4.94979 7.61344 4.94979 8.26416V9.15538H6.81584V8.26416Z" fill="black"/>
<path d="M38.9998 6.1579C40.7003 6.1579 42.0788 4.7794 42.0788 3.07895C42.0788 1.37849 40.7003 0 38.9998 0C37.2994 0 35.9209 1.37849 35.9209 3.07895C35.9209 4.7794 37.2994 6.1579 38.9998 6.1579Z" fill="#3CD259"/>
<defs>
<filter id="filter0_i_100_94" x="2.39478" y="13.3673" width="10.2632" height="12.8695" filterUnits="userSpaceOnUse" color-interpolation-filters="sRGB">
<feFlood flood-opacity="0" result="BackgroundImageFix"/>
<feBlend mode="normal" in="SourceGraphic" in2="BackgroundImageFix" result="shape"/>
<feColorMatrix in="SourceAlpha" type="matrix" values="0 0 0 0 0 0 0 0 0 0 0 0 0 0 0 0 0 0 127 0" result="hardAlpha"/>
<feOffset dy="4"/>
<feGaussianBlur stdDeviation="2"/>
<feComposite in2="hardAlpha" operator="arithmetic" k2="-1" k3="1"/>
<feColorMatrix type="matrix" values="0 0 0 0 0 0 0 0 0 0 0 0 0 0 0 0 0 0 0.25 0"/>
<feBlend mode="normal" in2="shape" result="effect1_innerShadow_100_94"/>
</filter>
</defs>
</svg>
