<svg width="20" height="20" viewBox="0 0 20 20" fill="none" xmlns="http://www.w3.org/2000/svg">
<path d="M14.5263 2.73469C14.289 2.73469 14.0614 2.64331 13.8936 2.48065C13.7258 2.31799 13.6316 2.09738 13.6316 1.86735C13.6316 1.63731 13.7258 1.4167 13.8936 1.25404C14.0614 1.09138 14.289 1 14.5263 1H18.1053C18.3426 1 18.5701 1.09138 18.7379 1.25404C18.9057 1.4167 19 1.63731 19 1.86735V5.33673C19 5.56677 18.9057 5.78738 18.7379 5.95004C18.5701 6.1127 18.3426 6.20408 18.1053 6.20408C17.868 6.20408 17.6404 6.1127 17.4726 5.95004C17.3048 5.78738 17.2105 5.56677 17.2105 5.33673V3.96112L12.0273 8.98566C11.8595 9.14826 11.632 9.23961 11.3947 9.23961C11.1575 9.23961 10.9299 9.14826 10.7622 8.98566L8.26316 6.56316L3.52732 11.154C3.35857 11.312 3.13255 11.3994 2.89796 11.3975C2.66336 11.3955 2.43895 11.3043 2.27306 11.1435C2.10717 10.9826 2.01307 10.7651 2.01103 10.5377C2.00899 10.3103 2.09917 10.0912 2.26216 9.9276L7.63058 4.72352C7.79837 4.56092 8.02591 4.46957 8.26316 4.46957C8.50041 4.46957 8.72795 4.56092 8.89574 4.72352L11.3947 7.14602L15.9454 2.73469H14.5263ZM3.78947 14.8775V17.4796C3.78947 17.7096 3.69521 17.9302 3.52741 18.0929C3.35962 18.2556 3.13204 18.3469 2.89474 18.3469C2.65744 18.3469 2.42986 18.2556 2.26206 18.0929C2.09427 17.9302 2 17.7096 2 17.4796V14.8775C2 14.6475 2.09427 14.4269 2.26206 14.2642C2.42986 14.1016 2.65744 14.0102 2.89474 14.0102C3.13204 14.0102 3.35962 14.1016 3.52741 14.2642C3.69521 14.4269 3.78947 14.6475 3.78947 14.8775ZM8.26316 11.4082C8.26316 11.1781 8.16889 10.9575 8.0011 10.7949C7.8333 10.6322 7.60572 10.5408 7.36842 10.5408C7.13112 10.5408 6.90354 10.6322 6.73575 10.7949C6.56795 10.9575 6.47368 11.1781 6.47368 11.4082V17.4796C6.47368 17.7096 6.56795 17.9302 6.73575 18.0929C6.90354 18.2556 7.13112 18.3469 7.36842 18.3469C7.60572 18.3469 7.8333 18.2556 8.0011 18.0929C8.16889 17.9302 8.26316 17.7096 8.26316 17.4796V11.4082ZM11.8421 12.2755C12.0794 12.2755 12.307 12.3669 12.4748 12.5295C12.6426 12.6922 12.7368 12.9128 12.7368 13.1429V17.4796C12.7368 17.7096 12.6426 17.9302 12.4748 18.0929C12.307 18.2556 12.0794 18.3469 11.8421 18.3469C11.6048 18.3469 11.3772 18.2556 11.2094 18.0929C11.0416 17.9302 10.9474 17.7096 10.9474 17.4796V13.1429C10.9474 12.9128 11.0416 12.6922 11.2094 12.5295C11.3772 12.3669 11.6048 12.2755 11.8421 12.2755ZM17.2105 8.80612C17.2105 8.57609 17.1163 8.35547 16.9485 8.19281C16.7807 8.03016 16.5531 7.93877 16.3158 7.93877C16.0785 7.93877 15.8509 8.03016 15.6831 8.19281C15.5153 8.35547 15.4211 8.57609 15.4211 8.80612V17.4796C15.4211 17.7096 15.5153 17.9302 15.6831 18.0929C15.8509 18.2556 16.0785 18.3469 16.3158 18.3469C16.5531 18.3469 16.7807 18.2556 16.9485 18.0929C17.1163 17.9302 17.2105 17.7096 17.2105 17.4796V8.80612Z" fill="#B3B3B3"/>
</svg>
