<svg width="43" height="46" viewBox="0 0 43 46" fill="none" xmlns="http://www.w3.org/2000/svg">
<path d="M41.28 0H1.72C0.768625 0 0 0.82225 0 1.84V44.16C0 45.1778 0.768625 46 1.72 46H41.28C42.2314 46 43 45.1778 43 44.16V1.84C43 0.82225 42.2314 0 41.28 0ZM33.0724 16.6578C33.0885 16.928 33.0885 17.2098 33.0885 17.4858C33.0885 25.9268 27.0793 35.65 16.0981 35.65C12.7119 35.65 9.57287 34.5978 6.92837 32.7865C7.41212 32.844 7.87438 32.867 8.36888 32.867C11.1639 32.867 13.7331 31.855 15.781 30.1415C13.158 30.084 10.9542 28.244 10.2017 25.714C11.1209 25.8578 11.9486 25.8578 12.8946 25.599C11.544 25.3055 10.3301 24.5208 9.45901 23.3783C8.58795 22.2357 8.11349 20.8058 8.11625 19.3315V19.251C8.90638 19.7282 9.83625 20.0215 10.8091 20.0618C9.99128 19.4787 9.32056 18.6887 8.85645 17.7619C8.39233 16.8351 8.14916 15.8002 8.1485 14.7488C8.1485 13.5585 8.43875 12.4718 8.96013 11.5288C10.4592 13.5029 12.3299 15.1176 14.4505 16.2677C16.5711 17.4178 18.8942 18.0777 21.2689 18.2045C20.425 13.8633 23.4565 10.35 27.1008 10.35C28.8208 10.35 30.3687 11.1205 31.4599 12.3625C32.809 12.0923 34.099 11.5517 35.2492 10.8272C34.8031 12.305 33.8679 13.5527 32.6263 14.3405C33.8303 14.2025 34.9913 13.846 36.0663 13.3458C35.2546 14.6223 34.2387 15.755 33.0724 16.6578V16.6578Z" fill="#0FA958"/>
</svg>
