<svg width="28" height="28" viewBox="0 0 28 28" fill="none" xmlns="http://www.w3.org/2000/svg">
<path d="M19.3846 16.1538C19.099 16.1538 18.8251 16.2673 18.6231 16.4693C18.4212 16.6712 18.3077 16.9452 18.3077 17.2308C18.3077 17.5164 18.4212 17.7903 18.6231 17.9923C18.8251 18.1942 19.099 18.3077 19.3846 18.3077H22.6154C22.901 18.3077 23.1749 18.1942 23.3769 17.9923C23.5788 17.7903 23.6923 17.5164 23.6923 17.2308C23.6923 16.9452 23.5788 16.6712 23.3769 16.4693C23.1749 16.2673 22.901 16.1538 22.6154 16.1538H19.3846ZM2.29566e-06 3.23077C2.29566e-06 2.37392 0.340386 1.55216 0.946273 0.946271C1.55216 0.340384 2.37392 0 3.23077 0H21.2692C22.1975 0 23.0877 0.368749 23.7441 1.02513C24.4005 1.6815 24.7692 2.57174 24.7692 3.5V4.58338C26.6517 5.24892 28 7.04415 28 9.15385V23.1538C28 24.4391 27.4894 25.6718 26.5806 26.5806C25.6718 27.4894 24.4391 28 23.1538 28H4.84616C3.56088 28 2.32824 27.4894 1.41941 26.5806C0.510578 25.6718 2.29566e-06 24.4391 2.29566e-06 23.1538V3.5H0.0107715C0.00348866 3.41044 -0.000104112 3.32062 2.29566e-06 3.23077ZM23.1538 6.46154H2.15385V23.1538C2.15385 23.8679 2.4375 24.5527 2.94241 25.0576C3.44731 25.5625 4.13211 25.8462 4.84616 25.8462H23.1538C23.8679 25.8462 24.5527 25.5625 25.0576 25.0576C25.5625 24.5527 25.8462 23.8679 25.8462 23.1538V9.15385C25.8462 8.4398 25.5625 7.755 25.0576 7.2501C24.5527 6.74519 23.8679 6.46154 23.1538 6.46154ZM22.6154 3.5C22.6154 2.75692 22.0123 2.15385 21.2692 2.15385H3.23077C2.94515 2.15385 2.67123 2.26731 2.46927 2.46927C2.26731 2.67123 2.15385 2.94515 2.15385 3.23077C2.15385 3.51639 2.26731 3.79031 2.46927 3.99227C2.67123 4.19423 2.94515 4.30769 3.23077 4.30769H22.6154V3.5Z" fill="#B3B3B3"/>
</svg>
