<svg width="20" height="20" viewBox="0 0 20 20" fill="none" xmlns="http://www.w3.org/2000/svg">
<g clip-path="url(#clip0_101_56)">
<path d="M13.9774 0.00999351C13.9349 -0.0375065 12.4037 0.0287435 11.0712 1.47499C9.73866 2.91999 9.94366 4.57749 9.97366 4.61999C10.0037 4.66249 11.8737 4.72874 13.0674 3.04749C14.2612 1.36624 14.0199 0.0587435 13.9774 0.00999351ZM18.1199 14.6762C18.0599 14.5562 15.2137 13.1337 15.4787 10.3987C15.7437 7.66249 17.5724 6.91249 17.6012 6.83124C17.6299 6.74999 16.8549 5.84374 16.0337 5.38499C15.4307 5.06156 14.7633 4.87625 14.0799 4.84249C13.9449 4.83874 13.4762 4.72374 12.5124 4.98749C11.8774 5.16124 10.4462 5.72374 10.0524 5.74624C9.65741 5.76874 8.48241 5.09374 7.21866 4.91499C6.40991 4.75874 5.55241 5.07874 4.93866 5.32499C4.32616 5.56999 3.16116 6.26749 2.34616 8.12124C1.53116 9.97374 1.95741 12.9087 2.26241 13.8212C2.56741 14.7325 3.04366 16.2262 3.85366 17.3162C4.57366 18.5462 5.52866 19.4 5.92741 19.69C6.32616 19.98 7.45116 20.1725 8.23116 19.7737C8.85866 19.3887 9.99116 19.1675 10.4387 19.1837C10.8849 19.2 11.7649 19.3762 12.6662 19.8575C13.3799 20.1037 14.0549 20.0012 14.7312 19.7262C15.4074 19.45 16.3862 18.4025 17.5287 16.2787C17.9624 15.2912 18.1599 14.7575 18.1199 14.6762Z" fill="white"/>
<path d="M13.9774 0.00999351C13.9349 -0.0375065 12.4037 0.0287435 11.0712 1.47499C9.73866 2.91999 9.94366 4.57749 9.97366 4.61999C10.0037 4.66249 11.8737 4.72874 13.0674 3.04749C14.2612 1.36624 14.0199 0.0587435 13.9774 0.00999351ZM18.1199 14.6762C18.0599 14.5562 15.2137 13.1337 15.4787 10.3987C15.7437 7.66249 17.5724 6.91249 17.6012 6.83124C17.6299 6.74999 16.8549 5.84374 16.0337 5.38499C15.4307 5.06156 14.7633 4.87625 14.0799 4.84249C13.9449 4.83874 13.4762 4.72374 12.5124 4.98749C11.8774 5.16124 10.4462 5.72374 10.0524 5.74624C9.65741 5.76874 8.48241 5.09374 7.21866 4.91499C6.40991 4.75874 5.55241 5.07874 4.93866 5.32499C4.32616 5.56999 3.16116 6.26749 2.34616 8.12124C1.53116 9.97374 1.95741 12.9087 2.26241 13.8212C2.56741 14.7325 3.04366 16.2262 3.85366 17.3162C4.57366 18.5462 5.52866 19.4 5.92741 19.69C6.32616 19.98 7.45116 20.1725 8.23116 19.7737C8.85866 19.3887 9.99116 19.1675 10.4387 19.1837C10.8849 19.2 11.7649 19.3762 12.6662 19.8575C13.3799 20.1037 14.0549 20.0012 14.7312 19.7262C15.4074 19.45 16.3862 18.4025 17.5287 16.2787C17.9624 15.2912 18.1599 14.7575 18.1199 14.6762Z" fill="white"/>
</g>
<defs>
<clipPath id="clip0_101_56">
<rect width="20" height="20" fill="white"/>
</clipPath>
</defs>
</svg>
